# xmcd
#
# Track frame offsets:
# 150
# 12344
# 28396
# 44538
# 58007
# 66296
# 82477
# 98681
# 114765
# 131116
# 134744
# 151175
# 167610
# 184096
# 203736
# 222377
# 236778
#
# Disc length: 3404 seconds
#
# Revision: 0
# Processed by: cddbd v1.5.1PL0 Copyright (c) Steve Scherf et al.
# Submitted via: Audion 3.0.2 (http://www.panic.com/audion/)
#
DISCID=fd0d4a11
DTITLE=Mogens - demo
DYEAR=1900
DGENRE=
TTITLE0=forsøg
TTITLE1=forsøg
TTITLE2=forsøg
TTITLE3=forsøg
TTITLE4=forsøg
TTITLE5=forsøg
TTITLE6=forsøg
TTITLE7=forsøg
TTITLE8=forsøg
TTITLE9=forsøg
TTITLE10=forsøg
TTITLE11=forsøg
TTITLE12=please
TTITLE13=l
TTITLE14=l
TTITLE15=Keep On Shining
TTITLE16=emily
EXTD=
EXTT0=
EXTT1=
EXTT2=
EXTT3=
EXTT4=
EXTT5=
EXTT6=
EXTT7=
EXTT8=
EXTT9=
EXTT10=
EXTT11=
EXTT12=
EXTT13=
EXTT14=
EXTT15=
EXTT16=
PLAYORDER=
